<svg width="51" height="43" viewBox="0 0 51 43" fill="none" xmlns="http://www.w3.org/2000/svg">
  <path d="M46.3 17H44.2L37.7 10.5C37.4 10.2 37 9.9 36.6 9.7C36.2 9.5 35.7 9.4 35.3 9.4H28.5V6.5H32.2C32.7 6.5 33.2 6.3 33.6 6C34 5.7 34.2 5.2 34.2 4.7C34.2 4.2 34 3.7 33.6 3.3C33.2 2.9 32.7 2.7 32.2 2.7H19.5C19 2.7 18.5 2.9 18.1 3.3C17.7 3.7 17.5 4.2 17.5 4.7C17.5 5.2 17.7 5.7 18.1 6C18.5 6.3 19 6.5 19.5 6.5H23.2V9.4H12.5C11.6 9.4 10.7 9.8 10.1 10.4C9.5 11 9.1 11.9 9.1 12.8V21.7H6.2V18C6.2 17.5 6 17 5.6 16.6C5.2 16.2 4.7 16 4.2 16C3.7 16 3.2 16.2 2.8 16.6C2.4 17 2.2 17.5 2.2 18V30.5C2.2 31 2.4 31.5 2.8 31.9C3.2 32.3 3.7 32.5 4.2 32.5C4.7 32.5 5.2 32.3 5.6 31.9C6 31.5 6.2 31 6.2 30.5V26.8H9.1V29.9C9.1 30.3 9.2 30.8 9.4 31.2C9.6 31.6 9.8 32 10.1 32.3L17.5 39.7C17.8 40 18.2 40.3 18.6 40.5C19 40.7 19.5 40.8 19.9 40.8H35.3C35.7 40.8 36.2 40.7 36.6 40.5C37 40.3 37.4 40 37.7 39.7L44.2 33.2H46.3C47.2 33.2 48.1 32.8 48.7 32.2C49.3 31.6 49.7 30.7 49.7 29.8V21C49.7 20.1 49.3 19.2 48.7 18.6C48.1 18 47.2 17.6 46.3 17.6ZM45.7 28.9H43.6C43.3 28.9 43 29 42.8 29.1C42.6 29.2 42.4 29.3 42.2 29.5L35.3 36.4H20.6L13.7 29.5V13.7H35.3L42.2 20.6C42.4 20.8 42.6 20.9 42.8 21C43 21.1 43.3 21.2 43.6 21.2H45.7V28.9Z" fill="#000000"/>
</svg>
