<svg xmlns="http://www.w3.org/2000/svg" version="1.1" x="0px" y="0px" viewBox="0 0 39.8 24.5" xml:space="preserve">
	<defs>
		<style>
			path,
			line{
				fill:none;
				stroke:#000000;
				stroke-width:2;
				stroke-linecap:round;
				stroke-linejoin:round;
				stroke-miterlimit:22.9256;
			}
			ellipse{
				fill:none;
				stroke:#000000;
				stroke-width:2;
				stroke-linecap:round;
				stroke-linejoin:round;
				stroke-miterlimit:22.9259;
			}
		</style>
	</defs>
	<path d="M12.3,2.7C14.6,1.6,17.2,1,19.9,1s5.3,0.6,7.6,1.7l-5.1,8.8c-0.8-0.3-1.7-0.4-2.6-0.4c-0.9,0-1.8,0.1-2.6,0.4
		L12.3,2.7z"/>
	<path d="M31.2,4.9c2.1,1.5,3.9,3.4,5.3,5.8c1.4,2.4,2.1,4.9,2.4,7.5H28.7c-0.2-0.8-0.5-1.6-0.9-2.4
		c-0.4-0.8-1-1.4-1.6-2L31.2,4.9z"/>
	<path d="M13.7,13.7c-0.6,0.6-1.2,1.2-1.6,2c-0.4,0.8-0.8,1.6-0.9,2.4H1c0.2-2.6,1-5.1,2.4-7.5c1.4-2.4,3.2-4.3,5.3-5.8
		L13.7,13.7z"/>
	<ellipse cx="19.9" cy="19.8" rx="3.7" ry="3.7"/>
	<line x1="23.3" y1="17.8" x2="32" y2="13.3"/>
</svg>