<svg xmlns="http://www.w3.org/2000/svg" version="1.1" x="0px" y="0px" viewBox="0 0 32 40" xml:space="preserve">
	<defs>
		<style>
			path{
				fill-rule: evenodd;
				fill: #000
			}
		</style>
	</defs>
	<path d="M20.065,27.475a0.856,0.856,0,0,0-.854-0.859H12.606a0.859,0.859,0,0,0,0,1.718h6.605A0.856,0.856,0,0,0,20.065,27.475Zm-6.944-2.9H18.7a0.859,0.859,0,0,0,0-1.718H13.121A0.859,0.859,0,0,0,13.121,24.577Zm0-3.623H18.7a0.859,0.859,0,0,0,0-1.718H13.121A0.859,0.859,0,0,0,13.121,20.954ZM31.992,32.087a2.018,2.018,0,0,0-2.07-1.644,0.793,0.793,0,0,0-.127.01l-2.365.357a8.508,8.508,0,0,0,.345-3.409L26.6,13.818C25.963,9.028,22.46,7.59,20.653,7.5H19.266V6.788h0.223a2.179,2.179,0,0,0,2.283-1.9,11.623,11.623,0,0,0-.905-3.705A1.97,1.97,0,0,0,18.918.049H12.939a2.057,2.057,0,0,0-1.994,1.143,12.015,12.015,0,0,0-.9,3.7,2.181,2.181,0,0,0,2.283,1.9h0.279V7.5H11.291a0.817,0.817,0,0,0-.108.007c-4.824.619-5.832,5.875-5.932,6.474-0.208,1.256-1.157,11.666-1.2,13.954A10.234,10.234,0,0,0,4.49,30.8l-2.285-.35a0.82,0.82,0,0,0-.129-0.01,2.018,2.018,0,0,0-2.07,1.644,0.854,0.854,0,0,0-.01.192l0.337,5.675A2.148,2.148,0,0,0,2.384,40h23.4l3.905,0a2.132,2.132,0,0,0,1.981-2.039L32,32.279A0.866,0.866,0,0,0,31.992,32.087Zm-24.918,1.6a41.5,41.5,0,0,1,8.8-.887,44.629,44.629,0,0,1,9.049.9v4.589H7.074v-4.6ZM10.7,31.364l1.041-14.4a1.575,1.575,0,0,1,1.569-1.578h5.221A1.591,1.591,0,0,1,20.1,17.025l0.961,14.333a48.864,48.864,0,0,0-5.183-.277A47.1,47.1,0,0,0,10.7,31.364ZM11.747,4.756a12.109,12.109,0,0,1,.735-2.815,0.356,0.356,0,0,1,.334-0.177h0.021l0.068,0h6.06a0.845,0.845,0,0,0,.121-0.009,0.275,0.275,0,0,1,.252.191,11.748,11.748,0,0,1,.732,2.8,0.532,0.532,0,0,1-.581.324H12.327A0.542,0.542,0,0,1,11.747,4.756Zm2.567,2.031h3.244V7.5H14.314V6.788ZM6.937,14.26c0.077-.466.855-4.55,4.411-5.044h9.261c0.151,0.008,3.688.243,4.3,4.792l1.177,13.621a9.474,9.474,0,0,1-.747,4.145l-0.089.232c-0.55-.118-1.39-0.28-2.464-0.435L21.8,16.967a3.29,3.29,0,0,0-3.277-3.3H13.305a3.274,3.274,0,0,0-3.275,3.233L8.968,31.586c-0.976.149-1.738,0.3-2.246,0.416L6.56,31.619a10.751,10.751,0,0,1-.8-3.657C5.8,25.8,6.739,15.452,6.937,14.26ZM2.452,38.286a0.428,0.428,0,0,1-.413-0.429L1.71,32.316a0.343,0.343,0,0,1,.313-0.153l3.1,0.475c0.1,0.243.185,0.44,0.243,0.569v5.078Zm27.507-.425a0.4,0.4,0,0,1-.344.422H26.633V33.169l0.2-.532,3.143-.475a0.333,0.333,0,0,1,.309.156Z"/>
</svg>