<svg width="28" height="32" viewBox="0 0 28 32" fill="none" xmlns="http://www.w3.org/2000/svg">
<path d="M26.7418 12.4464L14.9293 0.633905C14.8074 0.511873 14.6627 0.415066 14.5033 0.349014C14.344 0.282963 14.1732 0.248968 14.0007 0.248968C13.8282 0.248968 13.6575 0.282963 13.4981 0.349014C13.3388 0.415066 13.194 0.511873 13.0721 0.633905L1.25964 12.4464C1.01336 12.6927 0.875 13.0267 0.875 13.375C0.875 13.7233 1.01336 14.0573 1.25964 14.3036C1.50591 14.5499 1.83994 14.6882 2.18823 14.6882C2.53652 14.6882 2.87055 14.5499 3.11682 14.3036L12.6882 4.73055V30.4375C12.6882 30.7856 12.8265 31.1194 13.0727 31.3656C13.3188 31.6117 13.6526 31.75 14.0007 31.75C14.3488 31.75 14.6827 31.6117 14.9288 31.3656C15.1749 31.1194 15.3132 30.7856 15.3132 30.4375V4.73055L24.8846 14.3036C25.1309 14.5499 25.4649 14.6882 25.8132 14.6882C26.1615 14.6882 26.4955 14.5499 26.7418 14.3036C26.9881 14.0573 27.1265 13.7233 27.1265 13.375C27.1265 13.0267 26.9881 12.6927 26.7418 12.4464Z" fill="#000000"/>
</svg>
