<svg xmlns="http://www.w3.org/2000/svg" version="1.1" x="0px" y="0px" viewBox="0 0 512 512" xml:space="preserve">
	<defs>
		<style>
			circle,
			path{
				fill-rule: evenodd;
				fill: #000
			}
		</style>
	</defs>
	<path d="m509.041 141.483c-1.895-1.878-4.487-2.931-7.126-2.898l-50.467.429-108.804-89.027c-1.824-1.493-4.127-2.279-6.475-2.26l-52.101.738c-5.49.078-9.891 4.567-9.858 10.058l.26 44.108h-162.533l-54.284-97.496c-1.765-3.17-5.109-5.135-8.737-5.135h-38.916c-5.522 0-10 4.477-10 10v442.177c0 5.522 4.478 10 10 10h70.849c5.522 0 10-4.478 10-10v-29.262l55.172-14.666h52.56v35.938c0 5.504 4.447 9.973 9.951 10l38.655.189c2.64.031 5.216-1.035 7.103-2.912 1.886-1.876 2.946-4.428 2.946-7.088v-36.079l18.655.092v29.806c0 5.47 4.395 9.924 9.863 9.999l17.868.245v53.561c0 5.522 4.478 10 10 10h56.303c3.323 0 6.43-1.651 8.289-4.406l27.278-40.424h41.743c2.719 0 5.321-1.107 7.206-3.067l54.765-56.924c1.793-1.862 2.794-4.348 2.794-6.933v-251.662c0-2.667-1.065-5.223-2.959-7.101zm-17.041 254.734-49.021 50.953h-42.803c-3.323 0-6.43 1.651-8.289 4.406l-27.278 40.424h-40.987v-53.425c0-5.47-4.395-9.924-9.863-9.999l-17.868-.245v-29.893c0-5.504-4.447-9.973-9.951-10l-38.655-.189c-2.62-.008-5.217 1.035-7.103 2.911-1.886 1.877-2.946 4.428-2.946 7.089v36.079l-18.655-.092v-35.987c0-5.522-4.478-10-10-10h-63.866c-.867 0-1.73.113-2.569.336l-63.865 16.978c-4.381 1.164-7.431 5.131-7.431 9.664v26.95h-50.85v-422.177h23.038l54.283 97.497c1.766 3.17 5.109 5.135 8.737 5.135h178.471c2.662 0 5.215-1.062 7.092-2.95s2.924-4.447 2.908-7.109l-.261-44.25 38.534-.546 108.78 89.005c1.788 1.463 4.025 2.261 6.333 2.261h.085l44-.374z"/>
	<path d="m444.798 207.807c0-5.523-4.478-10-10-10h-54.621c-5.522 0-10 4.477-10 10v9.647h-15.067v-62.773c0-5.523-4.478-10-10-10h-47.9c-5.522 0-10 4.477-10 10v62.773h-33.219v-34.538c0-5.523-4.478-10-10-10h-59.663c-5.522 0-10 4.477-10 10v70.756h-25.067v-28.067c0-4.409-2.888-8.298-7.108-9.573l-66.219-20c-3.031-.917-6.313-.342-8.854 1.544-2.54 1.886-4.038 4.864-4.038 8.028v43.849h-23.244c-5.522 0-10 4.477-10 10v30.456c0 5.522 4.478 10 10 10h23.244v35.106c0 3.164 1.498 6.142 4.038 8.028 1.745 1.296 3.84 1.972 5.963 1.972.968 0 1.941-.141 2.891-.427l66.219-20c4.221-1.275 7.108-5.164 7.108-9.573v-41.345h25.067v28.572c0 5.522 4.478 10 10 10h59.663c5.522 0 10-4.478 10-10v-38.332h33.219v96.568c0 5.522 4.478 10 10 10h47.899c5.522 0 10-4.478 10-10v-96.568h15.067v7.762c0 5.522 4.478 10 10 10h54.621c5.522 0 10-4.478 10-10v-7.762h23.286c5.522 0 10-4.478 10-10v-30.456c0-5.523-4.478-10-10-10h-23.286v-5.647zm-395 72.103v-10.456h13.244v10.456zm79.463 27.681-46.219 13.959v-102.479l46.219 13.959zm104.73-15.347h-39.663v-99.328h39.663zm101.118-65.967h-27.899v-20h27.899zm-27.899 20h27.899v20h-27.899zm0 40h27.899v20h-27.899zm27.899-121.596v21.597h-27.899v-21.597zm-48.025 79.229h-32.286v-6.456h32.286zm20.126 106.569v-24.201h27.899v24.201zm61.874-106.569h-13.286v-6.456h13.286zm55.714 17.762h-34.621v-43.865h34.621zm33.286-28.218v10.456h-13.286v-10.456z"/>
</svg>
